# xmcd CD database file
#
# Track frame offsets:
#	150
#	50627
#	89073
#	143049
#	186811
#	243984
#	259388
#	313755
#
# Disc length: 4520 seconds
#
# Revision: 0
# Processed by: cddbd v1.5.1PL0 Copyright (c) Steve Scherf et al.
# Submitted via: CDex 1.51
#
DISCID=7611a608
DTITLE=GEORGE ROBERT - SOUL SEARCHING
DYEAR=2005
DGENRE=Jazz
TTITLE0=NAMELY YOU
TTITLE1=SOUL SEARCHING
TTITLE2=NOSTALGIE
TTITLE3=AFRICAN VILLAGE
TTITLE4=BLUES FOR TRANE
TTITLE5=PEACE
TTITLE6=I'VE NEVER BEEN IN LOVE BEFORE
TTITLE7=HERE'S THAT RAINY DAY
EXTD=YEAR: 2005
EXTT0=
EXTT1=
EXTT2=
EXTT3=
EXTT4=
EXTT5=
EXTT6=
EXTT7=
PLAYORDER=
